<svg width="695" height="103" viewBox="0 0 695 103" fill="none" xmlns="http://www.w3.org/2000/svg">
<path fill-rule="evenodd" clip-rule="evenodd" d="M25.7692 0.0101594L0 25.5566L77.3178 102.206C91.5487 88.098 91.5487 65.221 77.3178 51.103L25.7692 0V0.0101594Z" fill="#30E8BF"/>
<path fill-rule="evenodd" clip-rule="evenodd" d="M154.636 25.5569L128.867 0.010498L85.3757 43.1257C95.6957 53.3564 100.293 67.1295 99.1971 80.5268L154.636 25.5671V25.5569Z" fill="#30E8BF"/>
<path d="M207.402 81.7022L181.1 12.5432H193.345L213.923 69.9592L234.696 12.5432H246.839L220.639 81.7022H207.391H207.402Z" fill="black"/>
<path d="M274.645 82.5958C266.618 82.5958 260.087 80.0077 255.07 74.8314C250.053 69.6551 247.545 62.7941 247.545 54.2381C247.545 45.682 250.084 38.8311 255.172 33.6954C260.261 28.5598 266.833 25.9817 274.891 25.9817C282.948 25.9817 289.49 28.4582 294.517 33.3909C299.534 38.3337 302.042 44.7889 302.042 52.7461C302.042 54.6745 301.909 56.4608 301.643 58.1151H259.288C259.554 62.6926 261.11 66.3261 263.957 69.0157C266.803 71.7054 270.366 73.0452 274.645 73.0452C280.87 73.0452 285.252 70.4875 287.791 65.3822H300.138C298.469 70.4266 295.418 74.5574 291.005 77.7748C286.593 80.9922 281.136 82.5958 274.645 82.5958ZM285.59 39.5618C282.641 36.8721 279.068 35.5324 274.85 35.5324C270.632 35.5324 267.1 36.8721 264.264 39.5618C261.418 42.2514 259.8 45.8443 259.401 50.3609H290.115C290.043 45.8545 288.538 42.2514 285.6 39.5618H285.59Z" fill="black"/>
<path d="M319.715 26.8749V36.4256C323.257 29.463 328.786 25.9817 336.28 25.9817V37.7248H333.372C328.888 37.7248 325.489 38.8513 323.186 41.1045C320.882 43.3577 319.725 47.2755 319.725 52.8476V81.7027H308.279V26.8749H319.725H319.715Z" fill="black"/>
<path d="M368.6 36.121H355.147V66.4681C355.147 68.5284 355.629 70.0001 356.601 70.8932C357.574 71.7864 359.222 72.233 361.567 72.233H368.59V81.6822H359.56C348.923 81.6822 343.599 76.6074 343.599 66.4579V13.2236H355.137V26.8545H368.59V36.1109L368.6 36.121Z" fill="black"/>
<path d="M398.159 82.5958C390.092 82.5958 383.458 79.9975 378.236 74.7807C373.015 69.574 370.404 62.7432 370.404 54.2785C370.404 45.8138 373.097 38.9934 378.482 33.7765C383.867 28.5698 390.573 25.9614 398.61 25.9614C406.647 25.9614 413.342 28.5698 418.738 33.7765C424.123 38.9832 426.816 45.8037 426.816 54.2279C426.816 62.652 424.051 69.4826 418.533 74.7299C413.015 79.967 406.217 82.5958 398.159 82.5958ZM410.056 68.0718C413.404 64.7529 415.073 60.1451 415.073 54.238C415.073 48.331 413.445 43.7433 410.21 40.4549C406.964 37.1664 403.033 35.5324 398.415 35.5324C393.798 35.5324 389.918 37.1766 386.775 40.4549C383.632 43.7433 382.055 48.3512 382.055 54.2887C382.055 60.2262 383.591 64.8341 386.672 68.1225C389.754 71.411 393.583 73.0451 398.17 73.0451C402.756 73.0451 406.718 71.3907 410.066 68.0718H410.056Z" fill="black"/>
<path d="M429.518 21.3941V12.5334H478.2V21.3941H459.628V81.6924H448.182V21.3941H429.518Z" fill="black"/>
<path d="M496.166 26.8749V36.4256C499.709 29.463 505.237 25.9817 512.732 25.9817V37.7248H509.824C505.34 37.7248 501.941 38.8513 499.637 41.1045C497.334 43.3577 496.177 47.2755 496.177 52.8476V81.7027H484.73V26.8749H496.177H496.166Z" fill="black"/>
<path d="M521.956 74.5874C516.939 69.2487 514.431 62.4181 514.431 54.0854C514.431 45.7526 516.919 38.993 521.905 33.7863C526.891 28.5796 533.095 25.9712 540.528 25.9712C544.879 25.9712 548.708 26.9556 552.025 28.9043C555.342 30.8632 557.902 33.4311 559.704 36.618V26.8644H571.242V81.692H559.704V71.441C557.83 74.8208 555.25 77.5307 551.974 79.5505C548.698 81.5703 544.879 82.5852 540.528 82.5852C533.167 82.5852 526.983 79.9159 521.956 74.5772V74.5874ZM554.728 67.7263C558.045 64.3769 559.694 59.8808 559.694 54.2478C559.694 48.6148 558.035 44.1287 554.728 40.82C551.411 37.5011 547.48 35.8467 542.934 35.8467C538.388 35.8467 534.457 37.4705 531.14 40.7184C527.823 43.9662 526.174 48.4117 526.174 54.0549C526.174 59.698 527.833 64.2247 531.14 67.635C534.457 71.0554 538.378 72.7605 542.934 72.7605C547.49 72.7605 551.411 71.0858 554.728 67.7364V67.7263Z" fill="black"/>
<path d="M584.993 74.5877C579.977 69.2491 577.468 62.4185 577.468 54.0857C577.468 45.753 579.956 38.9934 584.942 33.7867C589.928 28.58 596.132 25.9716 603.565 25.9716C607.916 25.9716 611.745 26.956 615.062 28.9047C618.38 30.8635 620.939 33.4315 622.741 36.6184V8.05762H634.279V81.6924H622.741V71.4414C620.867 74.8212 618.287 77.5311 615.011 79.5509C611.735 81.5706 607.916 82.5856 603.565 82.5856C596.204 82.5856 590.02 79.9162 584.993 74.5776V74.5877ZM617.765 67.7267C621.082 64.3773 622.731 59.8812 622.731 54.2482C622.731 48.6152 621.072 44.1291 617.765 40.8203C614.448 37.5014 610.517 35.847 605.971 35.847C601.425 35.847 597.494 37.4709 594.177 40.7188C590.86 43.9666 589.211 48.4121 589.211 54.0553C589.211 59.6984 590.87 64.2251 594.177 67.6353C597.494 71.0557 601.415 72.7609 605.971 72.7609C610.527 72.7609 614.448 71.0862 617.765 67.7368V67.7267Z" fill="black"/>
<path d="M667.603 82.5958C659.576 82.5958 653.044 80.0077 648.028 74.8314C643.011 69.6551 640.503 62.7941 640.503 54.2381C640.503 45.682 643.042 38.8311 648.13 33.6954C653.218 28.5598 659.791 25.9817 667.848 25.9817C675.906 25.9817 682.448 28.4582 687.475 33.3909C692.491 38.3337 695 44.7889 695 52.7461C695 54.6745 694.867 56.4608 694.601 58.1151H652.246C652.512 62.6926 654.068 66.3261 656.914 69.0157C659.76 71.7054 663.323 73.0452 667.603 73.0452C673.828 73.0452 678.209 70.4875 680.748 65.3822H693.096C691.427 70.4266 688.376 74.5574 683.963 77.7748C679.551 80.9922 674.094 82.5958 667.603 82.5958ZM678.547 39.5618C675.599 36.8721 672.026 35.5324 667.808 35.5324C663.589 35.5324 660.057 36.8721 657.221 39.5618C654.375 42.2514 652.758 45.8443 652.348 50.3609H683.062C682.991 45.8545 681.486 42.2514 678.547 39.5618Z" fill="black"/>
</svg>
