<svg width="184" height="28" viewBox="0 0 184 28" fill="none" xmlns="http://www.w3.org/2000/svg">
<path d="M10.026 26.6978L0.694977 1.94812H5.03905L12.3398 22.4954L19.7094 1.94812H24.0172L14.7224 26.6978H10.0224H10.026Z" fill="white"/>
<path d="M33.8822 27.0175C31.0345 27.0175 28.7173 26.0913 26.9375 24.2389C25.1577 22.3865 24.2678 19.9312 24.2678 16.8692C24.2678 13.8073 25.1686 11.3556 26.9738 9.5177C28.7789 7.67981 31.1108 6.7572 33.9693 6.7572C36.8279 6.7572 39.1489 7.64347 40.9323 9.40871C42.7121 11.1776 43.6019 13.4877 43.6019 16.3353C43.6019 17.0254 43.5547 17.6647 43.4603 18.2567H28.4339C28.5283 19.8948 29.0804 21.1951 30.0902 22.1577C31.0999 23.1202 32.3639 23.5997 33.8822 23.5997C36.0905 23.5997 37.6451 22.6843 38.5459 20.8574H42.9264C42.3343 22.6625 41.2519 24.1408 39.6864 25.2922C38.1209 26.4436 36.185 27.0175 33.8822 27.0175ZM37.765 11.6171C36.719 10.6545 35.4513 10.1751 33.9549 10.1751C32.4584 10.1751 31.2053 10.6545 30.1992 11.6171C29.1894 12.5796 28.6155 13.8654 28.4739 15.4817H39.3704C39.345 13.869 38.8111 12.5796 37.7687 11.6171H37.765Z" fill="white"/>
<path d="M49.871 7.07684V10.4947C51.1278 8.00305 53.0892 6.7572 55.748 6.7572V10.9597H54.7164C53.1255 10.9597 51.9196 11.3628 51.1024 12.1692C50.2852 12.9755 49.8747 14.3776 49.8747 16.3716V26.6979H45.8139V7.07684H49.8747H49.871Z" fill="white"/>
<path d="M67.2147 10.3858H62.4421V21.2459C62.4421 21.9833 62.6127 22.5099 62.9578 22.8296C63.3029 23.1492 63.8877 23.309 64.7194 23.309H67.2111V26.6906H64.0075C60.2337 26.6906 58.3449 24.8745 58.3449 21.2423V2.19153H62.4384V7.06957H67.2111V10.3821L67.2147 10.3858Z" fill="white"/>
<path d="M77.7009 27.0175C74.8387 27.0175 72.4851 26.0877 70.6326 24.2208C68.7802 22.3575 67.854 19.913 67.854 16.8837C67.854 13.8545 68.8093 11.4137 70.7198 9.54676C72.6303 7.68345 75.0094 6.75 77.8607 6.75C80.7119 6.75 83.0873 7.68345 85.0015 9.54676C86.912 11.4101 87.8673 13.8509 87.8673 16.8656C87.8673 19.8803 86.8866 22.3248 84.9289 24.2026C82.9711 26.0768 80.5594 27.0175 77.7009 27.0175ZM81.9214 21.8199C83.1091 20.6322 83.7012 18.9832 83.7012 16.8693C83.7012 14.7553 83.1237 13.1135 81.9759 11.9367C80.8245 10.7599 79.4298 10.1751 77.7917 10.1751C76.1535 10.1751 74.7769 10.7635 73.6618 11.9367C72.5467 13.1135 71.9874 14.7626 71.9874 16.8874C71.9874 19.0122 72.5323 20.6612 73.6256 21.8381C74.7188 23.0149 76.0773 23.5997 77.7045 23.5997C79.3317 23.5997 80.7373 23.0076 81.925 21.8199H81.9214Z" fill="white"/>
<path d="M88.8262 5.11551V1.94458H106.097V5.11551H99.5085V26.6943H95.4476V5.11551H88.8262Z" fill="white"/>
<path d="M112.472 7.07684V10.4947C113.728 8.00305 115.69 6.7572 118.349 6.7572V10.9597H117.317C115.726 10.9597 114.52 11.3628 113.703 12.1692C112.886 12.9755 112.475 14.3776 112.475 16.3716V26.6979H108.415V7.07684H112.475H112.472Z" fill="white"/>
<path d="M121.621 24.1517C119.841 22.2411 118.951 19.7967 118.951 16.8147C118.951 13.8326 119.834 11.4136 121.603 9.5503C123.372 7.68699 125.573 6.75354 128.21 6.75354C129.754 6.75354 131.112 7.10582 132.289 7.8032C133.466 8.50421 134.374 9.42319 135.013 10.5637V7.07317H139.107V26.6942H135.013V23.0257C134.348 24.2352 133.433 25.205 132.271 25.9278C131.108 26.6506 129.754 27.0138 128.21 27.0138C125.598 27.0138 123.405 26.0585 121.621 24.148V24.1517ZM133.248 21.6963C134.425 20.4977 135.009 18.8887 135.009 16.8728C135.009 14.8569 134.421 13.2515 133.248 12.0674C132.071 10.8797 130.676 10.2876 129.063 10.2876C127.451 10.2876 126.056 10.8688 124.879 12.0311C123.702 13.1934 123.118 14.7843 123.118 16.8038C123.118 18.8232 123.706 20.4432 124.879 21.6636C126.056 22.8877 127.447 23.4979 129.063 23.4979C130.68 23.4979 132.071 22.8986 133.248 21.6999V21.6963Z" fill="white"/>
<path d="M143.985 24.1517C142.205 22.2412 141.315 19.7967 141.315 16.8147C141.315 13.8327 142.197 11.4137 143.966 9.55034C145.735 7.68704 147.936 6.75358 150.573 6.75358C152.117 6.75358 153.475 7.10587 154.652 7.80324C155.829 8.50425 156.737 9.42323 157.376 10.5637V0.342773H161.47V26.6942H157.376V23.0257C156.712 24.2352 155.796 25.205 154.634 25.9278C153.472 26.6506 152.117 27.0139 150.573 27.0139C147.962 27.0139 145.768 26.0586 143.985 24.1481V24.1517ZM155.611 21.6963C156.788 20.4977 157.373 18.8887 157.373 16.8728C157.373 14.857 156.784 13.2516 155.611 12.0675C154.434 10.8797 153.04 10.2877 151.427 10.2877C149.814 10.2877 148.419 10.8688 147.243 12.0311C146.066 13.1934 145.481 14.7843 145.481 16.8038C145.481 18.8233 146.069 20.4432 147.243 21.6637C148.419 22.8877 149.811 23.4979 151.427 23.4979C153.043 23.4979 154.434 22.8986 155.611 21.7V21.6963Z" fill="white"/>
<path d="M173.293 27.0175C170.445 27.0175 168.128 26.0913 166.348 24.2389C164.568 22.3865 163.678 19.9312 163.678 16.8692C163.678 13.8073 164.579 11.3556 166.384 9.5177C168.189 7.67981 170.521 6.7572 173.38 6.7572C176.238 6.7572 178.559 7.64347 180.343 9.40871C182.122 11.1776 183.012 13.4877 183.012 16.3353C183.012 17.0254 182.965 17.6647 182.871 18.2567H167.844C167.939 19.8948 168.491 21.1951 169.501 22.1577C170.51 23.1202 171.774 23.5997 173.293 23.5997C175.501 23.5997 177.056 22.6843 177.956 20.8574H182.337C181.745 22.6625 180.662 24.1408 179.097 25.2922C177.531 26.4436 175.595 27.0175 173.293 27.0175ZM177.175 11.6171C176.129 10.6545 174.862 10.1751 173.365 10.1751C171.869 10.1751 170.616 10.6545 169.61 11.6171C168.6 12.5796 168.026 13.8654 167.881 15.4817H178.777C178.752 13.869 178.218 12.5796 177.175 11.6171Z" fill="white"/>
</svg>
