<svg width="247" height="37" viewBox="0 0 247 37" fill="none" xmlns="http://www.w3.org/2000/svg">
<path fill-rule="evenodd" clip-rule="evenodd" d="M9.14226 0.00363573L0 9.14585L27.4302 36.5761C32.479 31.5274 32.479 23.3404 27.4302 18.2881L9.14226 0V0.00363573Z" fill="#30E8BF"/>
<path fill-rule="evenodd" clip-rule="evenodd" d="M54.8605 9.14588L45.7183 0.00366211L30.2888 15.4332C33.95 19.0944 35.5809 24.0233 35.1922 28.8178L54.8605 9.14951V9.14588Z" fill="#30E8BF"/>
<path d="M73.5807 32.2864L64.2497 7.53674H68.5938L75.8945 28.084L83.2641 7.53674H87.5719L78.2771 32.2864H73.5771H73.5807Z" fill="#30E8BF"/>
<path d="M97.4369 32.6061C94.5893 32.6061 92.272 31.6799 90.4922 29.8275C88.7124 27.9751 87.8225 25.5198 87.8225 22.4578C87.8225 19.3959 88.7233 16.9442 90.5285 15.1063C92.3337 13.2684 94.6655 12.3458 97.5241 12.3458C100.383 12.3458 102.704 13.2321 104.487 14.9973C106.267 16.7662 107.157 19.0763 107.157 21.9239C107.157 22.614 107.109 23.2533 107.015 23.8453H91.9886C92.083 25.4834 92.6352 26.7838 93.6449 27.7463C94.6547 28.7088 95.9186 29.1883 97.4369 29.1883C99.6452 29.1883 101.2 28.273 102.101 26.446H106.481C105.889 28.2512 104.807 29.7295 103.241 30.8809C101.676 32.0323 99.7397 32.6061 97.4369 32.6061ZM101.32 17.2057C100.274 16.2432 99.0061 15.7637 97.5096 15.7637C96.0131 15.7637 94.76 16.2432 93.7539 17.2057C92.7441 18.1682 92.1703 19.454 92.0286 21.0703H102.925C102.9 19.4576 102.366 18.1682 101.323 17.2057H101.32Z" fill="#30E8BF"/>
<path d="M113.426 12.6655V16.0834C114.683 13.5917 116.644 12.3458 119.303 12.3458V16.5483H118.271C116.68 16.5483 115.474 16.9514 114.657 17.7578C113.84 18.5641 113.429 19.9662 113.429 21.9602V32.2865H109.369V12.6655H113.429H113.426Z" fill="#30E8BF"/>
<path d="M130.769 15.9744H125.997V26.8346C125.997 27.5719 126.167 28.0986 126.513 28.4182C126.858 28.7378 127.442 28.8977 128.274 28.8977H130.766V32.2792H127.562C123.788 32.2792 121.9 30.4631 121.9 26.8309V7.78015H125.993V12.6582H130.766V15.9707L130.769 15.9744Z" fill="#30E8BF"/>
<path d="M141.256 32.6062C138.393 32.6062 136.04 31.6763 134.187 29.8094C132.335 27.9461 131.409 25.5016 131.409 22.4724C131.409 19.4431 132.364 17.0023 134.275 15.1354C136.185 13.2721 138.564 12.3386 141.415 12.3386C144.267 12.3386 146.642 13.2721 148.556 15.1354C150.467 16.9987 151.422 19.4395 151.422 22.4542C151.422 25.4689 150.441 27.9134 148.484 29.7912C146.526 31.6654 144.114 32.6062 141.256 32.6062ZM145.476 27.4085C146.664 26.2208 147.256 24.5718 147.256 22.4579C147.256 20.3439 146.678 18.7022 145.531 17.5253C144.379 16.3485 142.984 15.7637 141.346 15.7637C139.708 15.7637 138.332 16.3521 137.217 17.5253C136.101 18.7022 135.542 20.3512 135.542 22.476C135.542 24.6008 136.087 26.2498 137.18 27.4267C138.274 28.6035 139.632 29.1883 141.259 29.1883C142.886 29.1883 144.292 28.5963 145.48 27.4085H145.476Z" fill="#30E8BF"/>
<path d="M152.381 10.7041V7.5332H169.652V10.7041H163.063V32.2829H159.002V10.7041H152.381Z" fill="#30E8BF"/>
<path d="M176.026 12.6655V16.0834C177.283 13.5917 179.245 12.3458 181.903 12.3458V16.5483H180.872C179.281 16.5483 178.075 16.9514 177.258 17.7578C176.44 18.5641 176.03 19.9662 176.03 21.9602V32.2865H171.969V12.6655H176.03H176.026Z" fill="#30E8BF"/>
<path d="M185.176 29.7403C183.396 27.8297 182.506 25.3853 182.506 22.4033C182.506 19.4213 183.389 17.0022 185.158 15.1389C186.927 13.2756 189.128 12.3422 191.765 12.3422C193.308 12.3422 194.667 12.6944 195.844 13.3918C197.02 14.0928 197.928 15.0118 198.568 16.1523V12.6618H202.661V32.2828H198.568V28.6143C197.903 29.8238 196.988 30.7936 195.825 31.5164C194.663 32.2392 193.308 32.6024 191.765 32.6024C189.153 32.6024 186.959 31.6472 185.176 29.7366V29.7403ZM196.802 27.2849C197.979 26.0863 198.564 24.4773 198.564 22.4614C198.564 20.4456 197.976 18.8401 196.802 17.656C195.626 16.4683 194.231 15.8763 192.618 15.8763C191.005 15.8763 189.611 16.4574 188.434 17.6197C187.257 18.782 186.672 20.3729 186.672 22.3924C186.672 24.4119 187.261 26.0318 188.434 27.2522C189.611 28.4763 191.002 29.0865 192.618 29.0865C194.235 29.0865 195.626 28.4872 196.802 27.2886V27.2849Z" fill="#30E8BF"/>
<path d="M207.539 29.7403C205.759 27.8298 204.87 25.3854 204.87 22.4033C204.87 19.4213 205.752 17.0023 207.521 15.139C209.29 13.2757 211.491 12.3422 214.128 12.3422C215.672 12.3422 217.03 12.6945 218.207 13.3919C219.384 14.0929 220.292 15.0119 220.931 16.1524V5.9314H225.024V32.2828H220.931V28.6144C220.266 29.8239 219.351 30.7937 218.189 31.5165C217.026 32.2393 215.672 32.6025 214.128 32.6025C211.516 32.6025 209.323 31.6472 207.539 29.7367V29.7403ZM219.166 27.285C220.343 26.0863 220.927 24.4773 220.927 22.4615C220.927 20.4456 220.339 18.8402 219.166 17.6561C217.989 16.4684 216.594 15.8763 214.982 15.8763C213.369 15.8763 211.974 16.4574 210.797 17.6197C209.62 18.782 209.036 20.3729 209.036 22.3924C209.036 24.4119 209.624 26.0319 210.797 27.2523C211.974 28.4763 213.365 29.0866 214.982 29.0866C216.598 29.0866 217.989 28.4872 219.166 27.2886V27.285Z" fill="#30E8BF"/>
<path d="M236.847 32.6061C234 32.6061 231.682 31.6799 229.903 29.8275C228.123 27.9751 227.233 25.5198 227.233 22.4578C227.233 19.3959 228.134 16.9442 229.939 15.1063C231.744 13.2684 234.076 12.3458 236.934 12.3458C239.793 12.3458 242.114 13.2321 243.897 14.9973C245.677 16.7662 246.567 19.0763 246.567 21.9239C246.567 22.614 246.52 23.2533 246.425 23.8453H231.399C231.493 25.4834 232.046 26.7838 233.055 27.7463C234.065 28.7088 235.329 29.1883 236.847 29.1883C239.056 29.1883 240.61 28.273 241.511 26.446H245.891C245.299 28.2512 244.217 29.7295 242.652 30.8809C241.086 32.0323 239.15 32.6061 236.847 32.6061ZM240.73 17.2057C239.684 16.2432 238.416 15.7637 236.92 15.7637C235.423 15.7637 234.17 16.2432 233.164 17.2057C232.155 18.1682 231.581 19.454 231.435 21.0703H242.332C242.306 19.4576 241.772 18.1682 240.73 17.2057Z" fill="#30E8BF"/>
</svg>
