<svg width="183" height="28" viewBox="0 0 183 28" fill="none" xmlns="http://www.w3.org/2000/svg">
<path d="M9.58075 27.2864L0.249695 2.53674H4.59377L11.8945 23.084L19.2641 2.53674H23.5719L14.2771 27.2864H9.57711H9.58075Z" fill="#30E8BF"/>
<path d="M33.4369 27.6061C30.5893 27.6061 28.272 26.6799 26.4922 24.8275C24.7124 22.9751 23.8225 20.5198 23.8225 17.4578C23.8225 14.3959 24.7233 11.9442 26.5285 10.1063C28.3337 8.26843 30.6655 7.34583 33.5241 7.34583C36.3826 7.34583 38.7036 8.2321 40.487 9.99734C42.2668 11.7662 43.1566 14.0763 43.1566 16.9239C43.1566 17.614 43.1094 18.2533 43.015 18.8453H27.9886C28.083 20.4834 28.6352 21.7838 29.6449 22.7463C30.6547 23.7088 31.9186 24.1883 33.4369 24.1883C35.6452 24.1883 37.1999 23.273 38.1006 21.446H42.4811C41.889 23.2512 40.8066 24.7295 39.2411 25.8809C37.6756 27.0323 35.7397 27.6061 33.4369 27.6061ZM37.3198 12.2057C36.2737 11.2432 35.0061 10.7637 33.5096 10.7637C32.0131 10.7637 30.76 11.2432 29.7539 12.2057C28.7441 13.1682 28.1703 14.454 28.0286 16.0703H38.9251C38.8997 14.4576 38.3658 13.1682 37.3234 12.2057H37.3198Z" fill="#30E8BF"/>
<path d="M49.4258 7.66546V11.0834C50.6825 8.59168 52.6439 7.34583 55.3027 7.34583V11.5483H54.2711C52.6802 11.5483 51.4744 11.9514 50.6571 12.7578C49.8399 13.5641 49.4294 14.9662 49.4294 16.9602V27.2865H45.3687V7.66546H49.4294H49.4258Z" fill="#30E8BF"/>
<path d="M66.7694 10.9744H61.9968V21.8346C61.9968 22.5719 62.1675 23.0986 62.5125 23.4182C62.8576 23.7378 63.4424 23.8977 64.2742 23.8977H66.7658V27.2792H63.5623C59.7884 27.2792 57.8997 25.4631 57.8997 21.8309V2.78015H61.9931V7.65819H66.7658V10.9707L66.7694 10.9744Z" fill="#30E8BF"/>
<path d="M77.2556 27.6062C74.3934 27.6062 72.0398 26.6763 70.1874 24.8094C68.335 22.9461 67.4087 20.5016 67.4087 17.4724C67.4087 14.4431 68.364 12.0023 70.2745 10.1354C72.1851 8.27208 74.5641 7.33862 77.4154 7.33862C80.2666 7.33862 82.642 8.27208 84.5562 10.1354C86.4667 11.9987 87.422 14.4395 87.422 17.4542C87.422 20.4689 86.4413 22.9134 84.4836 24.7912C82.5258 26.6654 80.1141 27.6062 77.2556 27.6062ZM81.4761 22.4085C82.6638 21.2208 83.2559 19.5718 83.2559 17.4579C83.2559 15.3439 82.6784 13.7022 81.5307 12.5253C80.3793 11.3485 78.9845 10.7637 77.3464 10.7637C75.7083 10.7637 74.3316 11.3521 73.2165 12.5253C72.1015 13.7022 71.5422 15.3512 71.5422 17.476C71.5422 19.6008 72.087 21.2498 73.1803 22.4267C74.2736 23.6035 75.632 24.1883 77.2592 24.1883C78.8864 24.1883 80.292 23.5963 81.4798 22.4085H81.4761Z" fill="#30E8BF"/>
<path d="M88.3809 5.70413V2.5332H105.652V5.70413H99.0632V27.2829H95.0023V5.70413H88.3809Z" fill="#30E8BF"/>
<path d="M112.026 7.66546V11.0834C113.283 8.59168 115.245 7.34583 117.903 7.34583V11.5483H116.872C115.281 11.5483 114.075 11.9514 113.258 12.7578C112.44 13.5641 112.03 14.9662 112.03 16.9602V27.2865H107.969V7.66546H112.03H112.026Z" fill="#30E8BF"/>
<path d="M121.176 24.7403C119.396 22.8297 118.506 20.3853 118.506 17.4033C118.506 14.4213 119.389 12.0022 121.158 10.1389C122.927 8.27562 125.128 7.34216 127.765 7.34216C129.308 7.34216 130.667 7.69445 131.844 8.39182C133.02 9.09284 133.928 10.0118 134.568 11.1523V7.6618H138.661V27.2828H134.568V23.6143C133.903 24.8238 132.988 25.7936 131.825 26.5164C130.663 27.2392 129.308 27.6024 127.765 27.6024C125.153 27.6024 122.959 26.6472 121.176 24.7366V24.7403ZM132.802 22.2849C133.979 21.0863 134.564 19.4773 134.564 17.4614C134.564 15.4456 133.976 13.8401 132.802 12.656C131.626 11.4683 130.231 10.8763 128.618 10.8763C127.005 10.8763 125.611 11.4574 124.434 12.6197C123.257 13.782 122.672 15.3729 122.672 17.3924C122.672 19.4119 123.261 21.0318 124.434 22.2522C125.611 23.4763 127.002 24.0865 128.618 24.0865C130.235 24.0865 131.626 23.4872 132.802 22.2886V22.2849Z" fill="#30E8BF"/>
<path d="M143.539 24.7403C141.759 22.8298 140.87 20.3854 140.87 17.4033C140.87 14.4213 141.752 12.0023 143.521 10.139C145.29 8.27566 147.491 7.34221 150.128 7.34221C151.672 7.34221 153.03 7.69449 154.207 8.39187C155.384 9.09288 156.292 10.0119 156.931 11.1524V0.931396H161.024V27.2828H156.931V23.6144C156.266 24.8239 155.351 25.7937 154.189 26.5165C153.026 27.2393 151.672 27.6025 150.128 27.6025C147.516 27.6025 145.323 26.6472 143.539 24.7367V24.7403ZM155.166 22.285C156.343 21.0863 156.927 19.4773 156.927 17.4615C156.927 15.4456 156.339 13.8402 155.166 12.6561C153.989 11.4684 152.594 10.8763 150.982 10.8763C149.369 10.8763 147.974 11.4574 146.797 12.6197C145.62 13.782 145.036 15.3729 145.036 17.3924C145.036 19.4119 145.624 21.0319 146.797 22.2523C147.974 23.4763 149.365 24.0866 150.982 24.0866C152.598 24.0866 153.989 23.4872 155.166 22.2886V22.285Z" fill="#30E8BF"/>
<path d="M172.847 27.6061C170 27.6061 167.682 26.6799 165.903 24.8275C164.123 22.9751 163.233 20.5198 163.233 17.4578C163.233 14.3959 164.134 11.9442 165.939 10.1063C167.744 8.26843 170.076 7.34583 172.934 7.34583C175.793 7.34583 178.114 8.2321 179.897 9.99734C181.677 11.7662 182.567 14.0763 182.567 16.9239C182.567 17.614 182.52 18.2533 182.425 18.8453H167.399C167.493 20.4834 168.046 21.7838 169.055 22.7463C170.065 23.7088 171.329 24.1883 172.847 24.1883C175.056 24.1883 176.61 23.273 177.511 21.446H181.891C181.299 23.2512 180.217 24.7295 178.652 25.8809C177.086 27.0323 175.15 27.6061 172.847 27.6061ZM176.73 12.2057C175.684 11.2432 174.416 10.7637 172.92 10.7637C171.423 10.7637 170.17 11.2432 169.164 12.2057C168.155 13.1682 167.581 14.454 167.435 16.0703H178.332C178.306 14.4576 177.772 13.1682 176.73 12.2057Z" fill="#30E8BF"/>
</svg>
