<svg width="247" height="37" viewBox="0 0 247 37" fill="none" xmlns="http://www.w3.org/2000/svg">
<path fill-rule="evenodd" clip-rule="evenodd" d="M9.14925 0.415013L0.00708008 9.55723L27.4373 36.9875C32.4861 31.9387 32.4861 23.7518 27.4373 18.6994L9.14925 0.411377V0.415013Z" fill="#231F20"/>
<path fill-rule="evenodd" clip-rule="evenodd" d="M54.8639 9.55726L45.7217 0.415039L30.2922 15.8445C33.9534 19.5058 35.5843 24.4347 35.1957 29.2292L54.8639 9.56089V9.55726Z" fill="#231F20"/>
<path d="M73.5878 32.6978L64.2567 7.94812H68.6008L75.9015 28.4954L83.2712 7.94812H87.579L78.2842 32.6978H73.5842H73.5878Z" fill="#231F20"/>
<path d="M97.444 33.0175C94.5963 33.0175 92.279 32.0913 90.4992 30.2389C88.7195 28.3865 87.8296 25.9312 87.8296 22.8692C87.8296 19.8073 88.7304 17.3556 90.5356 15.5177C92.3408 13.6798 94.6726 12.7572 97.5311 12.7572C100.39 12.7572 102.711 13.6435 104.494 15.4087C106.274 17.1776 107.164 19.4877 107.164 22.3353C107.164 23.0254 107.116 23.6647 107.022 24.2567H91.9957C92.0901 25.8948 92.6422 27.1951 93.652 28.1577C94.6617 29.1202 95.9257 29.5997 97.444 29.5997C99.6523 29.5997 101.207 28.6843 102.108 26.8574H106.488C105.896 28.6625 104.814 30.1408 103.248 31.2922C101.683 32.4436 99.7468 33.0175 97.444 33.0175ZM101.327 17.6171C100.281 16.6545 99.0131 16.1751 97.5166 16.1751C96.0201 16.1751 94.7671 16.6545 93.7609 17.6171C92.7512 18.5796 92.1773 19.8654 92.0357 21.4817H102.932C102.907 19.869 102.373 18.5796 101.33 17.6171H101.327Z" fill="#231F20"/>
<path d="M113.433 13.0768V16.4947C114.69 14.0031 116.651 12.7572 119.31 12.7572V16.9597H118.278C116.687 16.9597 115.481 17.3628 114.664 18.1692C113.847 18.9755 113.436 20.3776 113.436 22.3716V32.6979H109.376V13.0768H113.436H113.433Z" fill="#231F20"/>
<path d="M130.773 16.3858H126V27.2459C126 27.9833 126.171 28.5099 126.516 28.8296C126.861 29.1492 127.446 29.309 128.278 29.309H130.769V32.6906H127.566C123.792 32.6906 121.903 30.8745 121.903 27.2423V8.19153H125.997V13.0696H130.769V16.3821L130.773 16.3858Z" fill="#231F20"/>
<path d="M141.259 33.0175C138.397 33.0175 136.043 32.0877 134.191 30.2208C132.338 28.3575 131.412 25.913 131.412 22.8837C131.412 19.8545 132.367 17.4137 134.278 15.5468C136.188 13.6835 138.568 12.75 141.419 12.75C144.27 12.75 146.645 13.6835 148.56 15.5468C150.47 17.4101 151.425 19.8509 151.425 22.8656C151.425 25.8803 150.445 28.3248 148.487 30.2026C146.529 32.0768 144.118 33.0175 141.259 33.0175ZM145.48 27.8199C146.667 26.6322 147.259 24.9832 147.259 22.8693C147.259 20.7553 146.682 19.1135 145.534 17.9367C144.383 16.7599 142.988 16.1751 141.35 16.1751C139.712 16.1751 138.335 16.7635 137.22 17.9367C136.105 19.1135 135.546 20.7626 135.546 22.8874C135.546 25.0122 136.09 26.6612 137.184 27.8381C138.277 29.0149 139.635 29.5997 141.263 29.5997C142.89 29.5997 144.295 29.0076 145.483 27.8199H145.48Z" fill="#231F20"/>
<path d="M152.388 11.1155V7.94458H169.659V11.1155H163.07V32.6943H159.009V11.1155H152.388Z" fill="#231F20"/>
<path d="M176.033 13.0768V16.4947C177.29 14.0031 179.252 12.7572 181.91 12.7572V16.9597H180.879C179.288 16.9597 178.082 17.3628 177.265 18.1692C176.448 18.9755 176.037 20.3776 176.037 22.3716V32.6979H171.976V13.0768H176.037H176.033Z" fill="#231F20"/>
<path d="M185.183 30.1517C183.403 28.2411 182.513 25.7967 182.513 22.8147C182.513 19.8326 183.396 17.4136 185.165 15.5503C186.934 13.687 189.135 12.7535 191.772 12.7535C193.315 12.7535 194.674 13.1058 195.851 13.8032C197.027 14.5042 197.936 15.4232 198.575 16.5637V13.0732H202.668V32.6942H198.575V29.0257C197.91 30.2352 196.995 31.205 195.832 31.9278C194.67 32.6506 193.315 33.0138 191.772 33.0138C189.16 33.0138 186.966 32.0585 185.183 30.148V30.1517ZM196.81 27.6963C197.986 26.4977 198.571 24.8887 198.571 22.8728C198.571 20.8569 197.983 19.2515 196.81 18.0674C195.633 16.8797 194.238 16.2876 192.625 16.2876C191.013 16.2876 189.618 16.8688 188.441 18.0311C187.264 19.1934 186.679 20.7843 186.679 22.8038C186.679 24.8232 187.268 26.4432 188.441 27.6636C189.618 28.8877 191.009 29.4979 192.625 29.4979C194.242 29.4979 195.633 28.8986 196.81 27.6999V27.6963Z" fill="#231F20"/>
<path d="M207.546 30.1517C205.767 28.2412 204.877 25.7967 204.877 22.8147C204.877 19.8327 205.759 17.4137 207.528 15.5503C209.297 13.687 211.498 12.7536 214.135 12.7536C215.679 12.7536 217.037 13.1059 218.214 13.8032C219.391 14.5043 220.299 15.4232 220.938 16.5637V6.34277H225.032V32.6942H220.938V29.0257C220.273 30.2352 219.358 31.205 218.196 31.9278C217.034 32.6506 215.679 33.0139 214.135 33.0139C211.524 33.0139 209.33 32.0586 207.546 30.1481V30.1517ZM219.173 27.6963C220.35 26.4977 220.934 24.8887 220.934 22.8728C220.934 20.857 220.346 19.2516 219.173 18.0675C217.996 16.8797 216.601 16.2877 214.989 16.2877C213.376 16.2877 211.981 16.8688 210.804 18.0311C209.628 19.1934 209.043 20.7843 209.043 22.8038C209.043 24.8233 209.631 26.4432 210.804 27.6637C211.981 28.8877 213.372 29.4979 214.989 29.4979C216.605 29.4979 217.996 28.8986 219.173 27.7V27.6963Z" fill="#231F20"/>
<path d="M236.851 33.0175C234.003 33.0175 231.686 32.0913 229.906 30.2389C228.126 28.3865 227.236 25.9312 227.236 22.8692C227.236 19.8073 228.137 17.3556 229.942 15.5177C231.747 13.6798 234.079 12.7572 236.938 12.7572C239.796 12.7572 242.117 13.6435 243.901 15.4087C245.681 17.1776 246.57 19.4877 246.57 22.3353C246.57 23.0254 246.523 23.6647 246.429 24.2567H231.402C231.497 25.8948 232.049 27.1951 233.059 28.1577C234.068 29.1202 235.332 29.5997 236.851 29.5997C239.059 29.5997 240.614 28.6843 241.514 26.8574H245.895C245.303 28.6625 244.22 30.1408 242.655 31.2922C241.089 32.4436 239.154 33.0175 236.851 33.0175ZM240.734 17.6171C239.687 16.6545 238.42 16.1751 236.923 16.1751C235.427 16.1751 234.174 16.6545 233.168 17.6171C232.158 18.5796 231.584 19.8654 231.439 21.4817H242.335C242.31 19.869 241.776 18.5796 240.734 17.6171Z" fill="#231F20"/>
</svg>
