<svg width="248" height="37" viewBox="0 0 248 37" fill="none" xmlns="http://www.w3.org/2000/svg">
<path fill-rule="evenodd" clip-rule="evenodd" d="M9.58757 0.415013L0.445312 9.55723L27.8756 36.9875C32.9243 31.9387 32.9243 23.7518 27.8756 18.6994L9.58757 0.411377V0.415013Z" fill="white"/>
<path fill-rule="evenodd" clip-rule="evenodd" d="M55.3058 9.55726L46.1636 0.415039L30.7341 15.8445C34.3953 19.5058 36.0262 24.4347 35.6375 29.2292L55.3058 9.56089V9.55726Z" fill="white"/>
<path d="M74.026 32.6978L64.695 7.94812H69.0391L76.3398 28.4954L83.7094 7.94812H88.0172L78.7224 32.6978H74.0224H74.026Z" fill="white"/>
<path d="M97.8822 33.0175C95.0345 33.0175 92.7173 32.0913 90.9375 30.2389C89.1577 28.3865 88.2678 25.9312 88.2678 22.8692C88.2678 19.8073 89.1686 17.3556 90.9738 15.5177C92.7789 13.6798 95.1108 12.7572 97.9693 12.7572C100.828 12.7572 103.149 13.6435 104.932 15.4087C106.712 17.1776 107.602 19.4877 107.602 22.3353C107.602 23.0254 107.555 23.6647 107.46 24.2567H92.4339C92.5283 25.8948 93.0804 27.1951 94.0902 28.1577C95.0999 29.1202 96.3639 29.5997 97.8822 29.5997C100.091 29.5997 101.645 28.6843 102.546 26.8574H106.926C106.334 28.6625 105.252 30.1408 103.686 31.2922C102.121 32.4436 100.185 33.0175 97.8822 33.0175ZM101.765 17.6171C100.719 16.6545 99.4513 16.1751 97.9549 16.1751C96.4584 16.1751 95.2053 16.6545 94.1992 17.6171C93.1894 18.5796 92.6155 19.8654 92.4739 21.4817H103.37C103.345 19.869 102.811 18.5796 101.769 17.6171H101.765Z" fill="white"/>
<path d="M113.871 13.0768V16.4947C115.128 14.0031 117.089 12.7572 119.748 12.7572V16.9597H118.716C117.126 16.9597 115.92 17.3628 115.102 18.1692C114.285 18.9755 113.875 20.3776 113.875 22.3716V32.6979H109.814V13.0768H113.875H113.871Z" fill="white"/>
<path d="M131.215 16.3858H126.442V27.2459C126.442 27.9833 126.613 28.5099 126.958 28.8296C127.303 29.1492 127.888 29.309 128.719 29.309H131.211V32.6906H128.008C124.234 32.6906 122.345 30.8745 122.345 27.2423V8.19153H126.438V13.0696H131.211V16.3821L131.215 16.3858Z" fill="white"/>
<path d="M141.701 33.0175C138.839 33.0175 136.485 32.0877 134.633 30.2208C132.78 28.3575 131.854 25.913 131.854 22.8837C131.854 19.8545 132.809 17.4137 134.72 15.5468C136.63 13.6835 139.009 12.75 141.861 12.75C144.712 12.75 147.087 13.6835 149.001 15.5468C150.912 17.4101 151.867 19.8509 151.867 22.8656C151.867 25.8803 150.887 28.3248 148.929 30.2026C146.971 32.0768 144.559 33.0175 141.701 33.0175ZM145.921 27.8199C147.109 26.6322 147.701 24.9832 147.701 22.8693C147.701 20.7553 147.124 19.1135 145.976 17.9367C144.825 16.7599 143.43 16.1751 141.792 16.1751C140.154 16.1751 138.777 16.7635 137.662 17.9367C136.547 19.1135 135.987 20.7626 135.987 22.8874C135.987 25.0122 136.532 26.6612 137.626 27.8381C138.719 29.0149 140.077 29.5997 141.704 29.5997C143.332 29.5997 144.737 29.0076 145.925 27.8199H145.921Z" fill="white"/>
<path d="M152.826 11.1155V7.94458H170.097V11.1155H163.508V32.6943H159.448V11.1155H152.826Z" fill="white"/>
<path d="M176.472 13.0768V16.4947C177.728 14.0031 179.69 12.7572 182.349 12.7572V16.9597H181.317C179.726 16.9597 178.52 17.3628 177.703 18.1692C176.886 18.9755 176.475 20.3776 176.475 22.3716V32.6979H172.415V13.0768H176.475H176.472Z" fill="white"/>
<path d="M185.621 30.1517C183.841 28.2411 182.951 25.7967 182.951 22.8147C182.951 19.8326 183.834 17.4136 185.603 15.5503C187.372 13.687 189.573 12.7535 192.21 12.7535C193.754 12.7535 195.112 13.1058 196.289 13.8032C197.466 14.5042 198.374 15.4232 199.013 16.5637V13.0732H203.107V32.6942H199.013V29.0257C198.348 30.2352 197.433 31.205 196.271 31.9278C195.108 32.6506 193.754 33.0138 192.21 33.0138C189.598 33.0138 187.405 32.0585 185.621 30.148V30.1517ZM197.248 27.6963C198.425 26.4977 199.009 24.8887 199.009 22.8728C199.009 20.8569 198.421 19.2515 197.248 18.0674C196.071 16.8797 194.676 16.2876 193.063 16.2876C191.451 16.2876 190.056 16.8688 188.879 18.0311C187.702 19.1934 187.118 20.7843 187.118 22.8038C187.118 24.8232 187.706 26.4432 188.879 27.6636C190.056 28.8877 191.447 29.4979 193.063 29.4979C194.68 29.4979 196.071 28.8986 197.248 27.6999V27.6963Z" fill="white"/>
<path d="M207.985 30.1517C206.205 28.2412 205.315 25.7967 205.315 22.8147C205.315 19.8327 206.197 17.4137 207.966 15.5503C209.735 13.687 211.936 12.7536 214.573 12.7536C216.117 12.7536 217.475 13.1059 218.652 13.8032C219.829 14.5043 220.737 15.4232 221.376 16.5637V6.34277H225.47V32.6942H221.376V29.0257C220.712 30.2352 219.796 31.205 218.634 31.9278C217.472 32.6506 216.117 33.0139 214.573 33.0139C211.962 33.0139 209.768 32.0586 207.985 30.1481V30.1517ZM219.611 27.6963C220.788 26.4977 221.373 24.8887 221.373 22.8728C221.373 20.857 220.784 19.2516 219.611 18.0675C218.434 16.8797 217.04 16.2877 215.427 16.2877C213.814 16.2877 212.419 16.8688 211.243 18.0311C210.066 19.1934 209.481 20.7843 209.481 22.8038C209.481 24.8233 210.069 26.4432 211.243 27.6637C212.419 28.8877 213.811 29.4979 215.427 29.4979C217.043 29.4979 218.434 28.8986 219.611 27.7V27.6963Z" fill="white"/>
<path d="M237.293 33.0175C234.445 33.0175 232.128 32.0913 230.348 30.2389C228.568 28.3865 227.678 25.9312 227.678 22.8692C227.678 19.8073 228.579 17.3556 230.384 15.5177C232.189 13.6798 234.521 12.7572 237.38 12.7572C240.238 12.7572 242.559 13.6435 244.343 15.4087C246.122 17.1776 247.012 19.4877 247.012 22.3353C247.012 23.0254 246.965 23.6647 246.871 24.2567H231.844C231.939 25.8948 232.491 27.1951 233.501 28.1577C234.51 29.1202 235.774 29.5997 237.293 29.5997C239.501 29.5997 241.056 28.6843 241.956 26.8574H246.337C245.745 28.6625 244.662 30.1408 243.097 31.2922C241.531 32.4436 239.595 33.0175 237.293 33.0175ZM241.175 17.6171C240.129 16.6545 238.862 16.1751 237.365 16.1751C235.869 16.1751 234.616 16.6545 233.61 17.6171C232.6 18.5796 232.026 19.8654 231.881 21.4817H242.777C242.752 19.869 242.218 18.5796 241.175 17.6171Z" fill="white"/>
</svg>
