<svg width="183" height="28" viewBox="0 0 183 28" fill="none" xmlns="http://www.w3.org/2000/svg">
<path d="M9.5878 26.6978L0.256744 1.94812H4.60082L11.9015 22.4954L19.2712 1.94812H23.579L14.2842 26.6978H9.58416H9.5878Z" fill="#231F20"/>
<path d="M33.444 27.0175C30.5963 27.0175 28.279 26.0913 26.4992 24.2389C24.7195 22.3865 23.8296 19.9312 23.8296 16.8692C23.8296 13.8073 24.7304 11.3556 26.5356 9.5177C28.3408 7.67981 30.6726 6.7572 33.5311 6.7572C36.3897 6.7572 38.7106 7.64347 40.494 9.40871C42.2738 11.1776 43.1637 13.4877 43.1637 16.3353C43.1637 17.0254 43.1165 17.6647 43.022 18.2567H27.9957C28.0901 19.8948 28.6422 21.1951 29.652 22.1577C30.6617 23.1202 31.9257 23.5997 33.444 23.5997C35.6523 23.5997 37.2069 22.6843 38.1077 20.8574H42.4881C41.896 22.6625 40.8137 24.1408 39.2482 25.2922C37.6827 26.4436 35.7468 27.0175 33.444 27.0175ZM37.3268 11.6171C36.2807 10.6545 35.0131 10.1751 33.5166 10.1751C32.0201 10.1751 30.7671 10.6545 29.7609 11.6171C28.7512 12.5796 28.1773 13.8654 28.0357 15.4817H38.9322C38.9068 13.869 38.3728 12.5796 37.3304 11.6171H37.3268Z" fill="#231F20"/>
<path d="M49.4328 7.07684V10.4947C50.6896 8.00305 52.6509 6.7572 55.3097 6.7572V10.9597H54.2782C52.6873 10.9597 51.4813 11.3628 50.6641 12.1692C49.8469 12.9755 49.4364 14.3776 49.4364 16.3716V26.6979H45.3757V7.07684H49.4364H49.4328Z" fill="#231F20"/>
<path d="M66.7729 10.3858H62.0002V21.2459C62.0002 21.9833 62.1709 22.5099 62.5159 22.8296C62.861 23.1492 63.4458 23.309 64.2776 23.309H66.7692V26.6906H63.5656C59.7918 26.6906 57.9031 24.8745 57.9031 21.2423V2.19153H61.9966V7.06957H66.7692V10.3821L66.7729 10.3858Z" fill="#231F20"/>
<path d="M77.259 27.0175C74.3968 27.0175 72.0431 26.0877 70.1907 24.2208C68.3383 22.3575 67.4121 19.913 67.4121 16.8837C67.4121 13.8545 68.3674 11.4137 70.2779 9.54676C72.1884 7.68345 74.5675 6.75 77.4188 6.75C80.27 6.75 82.6455 7.68345 84.5597 9.54676C86.4702 11.4101 87.4254 13.8509 87.4254 16.8656C87.4254 19.8803 86.4447 22.3248 84.487 24.2026C82.5292 26.0768 80.1175 27.0175 77.259 27.0175ZM81.4796 21.8199C82.6673 20.6322 83.2593 18.9832 83.2593 16.8693C83.2593 14.7553 82.6818 13.1135 81.534 11.9367C80.3826 10.7599 78.9879 10.1751 77.3498 10.1751C75.7117 10.1751 74.3351 10.7635 73.22 11.9367C72.1049 13.1135 71.5455 14.7626 71.5455 16.8874C71.5455 19.0122 72.0904 20.6612 73.1836 21.8381C74.2769 23.0149 75.6354 23.5997 77.2626 23.5997C78.8898 23.5997 80.2955 23.0076 81.4832 21.8199H81.4796Z" fill="#231F20"/>
<path d="M88.388 5.11551V1.94458H105.659V5.11551H99.0702V26.6943H95.0095V5.11551H88.388Z" fill="#231F20"/>
<path d="M112.033 7.07684V10.4947C113.29 8.00305 115.252 6.7572 117.91 6.7572V10.9597H116.879C115.288 10.9597 114.082 11.3628 113.265 12.1692C112.448 12.9755 112.037 14.3776 112.037 16.3716V26.6979H107.976V7.07684H112.037H112.033Z" fill="#231F20"/>
<path d="M121.183 24.1517C119.403 22.2411 118.513 19.7967 118.513 16.8147C118.513 13.8326 119.396 11.4136 121.165 9.5503C122.934 7.68699 125.135 6.75354 127.772 6.75354C129.315 6.75354 130.674 7.10582 131.851 7.8032C133.027 8.50421 133.936 9.42319 134.575 10.5637V7.07317H138.668V26.6942H134.575V23.0257C133.91 24.2352 132.995 25.205 131.832 25.9278C130.67 26.6506 129.315 27.0138 127.772 27.0138C125.16 27.0138 122.966 26.0585 121.183 24.148V24.1517ZM132.81 21.6963C133.986 20.4977 134.571 18.8887 134.571 16.8728C134.571 14.8569 133.983 13.2515 132.81 12.0674C131.633 10.8797 130.238 10.2876 128.625 10.2876C127.013 10.2876 125.618 10.8688 124.441 12.0311C123.264 13.1934 122.679 14.7843 122.679 16.8038C122.679 18.8232 123.268 20.4432 124.441 21.6636C125.618 22.8877 127.009 23.4979 128.625 23.4979C130.242 23.4979 131.633 22.8986 132.81 21.6999V21.6963Z" fill="#231F20"/>
<path d="M143.546 24.1517C141.767 22.2412 140.877 19.7967 140.877 16.8147C140.877 13.8327 141.759 11.4137 143.528 9.55034C145.297 7.68704 147.498 6.75358 150.135 6.75358C151.679 6.75358 153.037 7.10587 154.214 7.80324C155.391 8.50425 156.299 9.42323 156.938 10.5637V0.342773H161.032V26.6942H156.938V23.0257C156.273 24.2352 155.358 25.205 154.196 25.9278C153.034 26.6506 151.679 27.0139 150.135 27.0139C147.524 27.0139 145.33 26.0586 143.546 24.1481V24.1517ZM155.173 21.6963C156.35 20.4977 156.934 18.8887 156.934 16.8728C156.934 14.857 156.346 13.2516 155.173 12.0675C153.996 10.8797 152.601 10.2877 150.989 10.2877C149.376 10.2877 147.981 10.8688 146.804 12.0311C145.628 13.1934 145.043 14.7843 145.043 16.8038C145.043 18.8233 145.631 20.4432 146.804 21.6637C147.981 22.8877 149.372 23.4979 150.989 23.4979C152.605 23.4979 153.996 22.8986 155.173 21.7V21.6963Z" fill="#231F20"/>
<path d="M172.851 27.0175C170.003 27.0175 167.686 26.0913 165.906 24.2389C164.126 22.3865 163.236 19.9312 163.236 16.8692C163.236 13.8073 164.137 11.3556 165.942 9.5177C167.747 7.67981 170.079 6.7572 172.938 6.7572C175.796 6.7572 178.117 7.64347 179.901 9.40871C181.681 11.1776 182.57 13.4877 182.57 16.3353C182.57 17.0254 182.523 17.6647 182.429 18.2567H167.402C167.497 19.8948 168.049 21.1951 169.059 22.1577C170.068 23.1202 171.332 23.5997 172.851 23.5997C175.059 23.5997 176.614 22.6843 177.514 20.8574H181.895C181.303 22.6625 180.22 24.1408 178.655 25.2922C177.089 26.4436 175.154 27.0175 172.851 27.0175ZM176.734 11.6171C175.687 10.6545 174.42 10.1751 172.923 10.1751C171.427 10.1751 170.174 10.6545 169.168 11.6171C168.158 12.5796 167.584 13.8654 167.439 15.4817H178.335C178.31 13.869 177.776 12.5796 176.734 11.6171Z" fill="#231F20"/>
</svg>
