<svg width="695" height="103" viewBox="0 0 695 103" fill="none" xmlns="http://www.w3.org/2000/svg">
<path fill-rule="evenodd" clip-rule="evenodd" d="M25.7692 0.0101594L0 25.5566L77.3178 102.206C91.5487 88.098 91.5487 65.221 77.3178 51.103L25.7692 0V0.0101594Z" fill="#30E8BF"/>
<path fill-rule="evenodd" clip-rule="evenodd" d="M154.636 25.5569L128.867 0.010498L85.3757 43.1257C95.6957 53.3564 100.293 67.1295 99.1971 80.5268L154.636 25.5671V25.5569Z" fill="#30E8BF"/>
<path d="M207.401 81.7022L181.1 12.5432H193.344L213.923 69.9592L234.696 12.5432H246.838L220.639 81.7022H207.391H207.401Z" fill="white"/>
<path d="M274.645 82.5958C266.618 82.5958 260.086 80.0077 255.069 74.8314C250.053 69.6551 247.544 62.7941 247.544 54.2381C247.544 45.682 250.083 38.8311 255.172 33.6954C260.26 28.5598 266.833 25.9817 274.89 25.9817C282.948 25.9817 289.49 28.4582 294.517 33.3909C299.533 38.3337 302.042 44.7889 302.042 52.7461C302.042 54.6745 301.908 56.4608 301.642 58.1151H259.287C259.554 62.6926 261.11 66.3261 263.956 69.0157C266.802 71.7054 270.365 73.0452 274.645 73.0452C280.869 73.0452 285.251 70.4875 287.79 65.3822H300.137C298.469 70.4266 295.418 74.5574 291.005 77.7748C286.592 80.9922 281.135 82.5958 274.645 82.5958ZM285.589 39.5618C282.64 36.8721 279.067 35.5324 274.849 35.5324C270.631 35.5324 267.099 36.8721 264.263 39.5618C261.417 42.2514 259.799 45.8443 259.4 50.3609H290.114C290.043 45.8545 288.538 42.2514 285.599 39.5618H285.589Z" fill="white"/>
<path d="M319.714 26.8749V36.4256C323.257 29.463 328.785 25.9817 336.28 25.9817V37.7248H333.372C328.888 37.7248 325.489 38.8513 323.185 41.1045C320.882 43.3577 319.725 47.2755 319.725 52.8476V81.7027H308.279V26.8749H319.725H319.714Z" fill="white"/>
<path d="M368.6 36.121H355.147V66.4681C355.147 68.5284 355.628 70.0001 356.601 70.8932C357.574 71.7864 359.222 72.233 361.566 72.233H368.59V81.6822H359.56C348.922 81.6822 343.599 76.6074 343.599 66.4579V13.2236H355.137V26.8545H368.59V36.1109L368.6 36.121Z" fill="white"/>
<path d="M398.159 82.5958C390.091 82.5958 383.457 79.9975 378.235 74.7807C373.014 69.574 370.403 62.7432 370.403 54.2785C370.403 45.8138 373.096 38.9934 378.481 33.7765C383.866 28.5698 390.572 25.9614 398.609 25.9614C406.646 25.9614 413.342 28.5698 418.737 33.7765C424.122 38.9832 426.815 45.8037 426.815 54.2279C426.815 62.652 424.051 69.4826 418.532 74.7299C413.014 79.967 406.216 82.5958 398.159 82.5958ZM410.055 68.0718C413.403 64.7529 415.072 60.1451 415.072 54.238C415.072 48.331 413.444 43.7433 410.209 40.4549C406.963 37.1664 403.032 35.5324 398.415 35.5324C393.797 35.5324 389.917 37.1766 386.774 40.4549C383.631 43.7433 382.054 48.3512 382.054 54.2887C382.054 60.2262 383.59 64.8341 386.672 68.1225C389.753 71.411 393.582 73.0451 398.169 73.0451C402.756 73.0451 406.718 71.3907 410.066 68.0718H410.055Z" fill="white"/>
<path d="M429.517 21.3941V12.5334H478.199V21.3941H459.627V81.6924H448.181V21.3941H429.517Z" fill="white"/>
<path d="M496.166 26.8749V36.4256C499.708 29.463 505.237 25.9817 512.731 25.9817V37.7248H509.823C505.339 37.7248 501.94 38.8513 499.636 41.1045C497.333 43.3577 496.176 47.2755 496.176 52.8476V81.7027H484.73V26.8749H496.176H496.166Z" fill="white"/>
<path d="M521.955 74.5874C516.939 69.2487 514.431 62.4181 514.431 54.0854C514.431 45.7526 516.918 38.993 521.904 33.7863C526.89 28.5796 533.095 25.9712 540.527 25.9712C544.878 25.9712 548.708 26.9556 552.025 28.9043C555.342 30.8632 557.901 33.4311 559.703 36.618V26.8644H571.241V81.692H559.703V71.441C557.83 74.8208 555.25 77.5307 551.973 79.5505C548.697 81.5703 544.878 82.5852 540.527 82.5852C533.166 82.5852 526.982 79.9159 521.955 74.5772V74.5874ZM554.728 67.7263C558.045 64.3769 559.693 59.8808 559.693 54.2478C559.693 48.6148 558.034 44.1287 554.728 40.82C551.41 37.5011 547.479 35.8467 542.933 35.8467C538.388 35.8467 534.456 37.4705 531.139 40.7184C527.822 43.9662 526.174 48.4117 526.174 54.0549C526.174 59.698 527.832 64.2247 531.139 67.635C534.456 71.0554 538.377 72.7605 542.933 72.7605C547.489 72.7605 551.41 71.0858 554.728 67.7364V67.7263Z" fill="white"/>
<path d="M584.993 74.5877C579.976 69.2491 577.468 62.4185 577.468 54.0857C577.468 45.753 579.956 38.9934 584.942 33.7867C589.927 28.58 596.132 25.9716 603.565 25.9716C607.916 25.9716 611.745 26.956 615.062 28.9047C618.379 30.8635 620.939 33.4315 622.74 36.6184V8.05762H634.279V81.6924H622.74V71.4414C620.867 74.8212 618.287 77.5311 615.011 79.5509C611.735 81.5706 607.916 82.5856 603.565 82.5856C596.203 82.5856 590.02 79.9162 584.993 74.5776V74.5877ZM617.765 67.7267C621.082 64.3773 622.73 59.8812 622.73 54.2482C622.73 48.6152 621.072 44.1291 617.765 40.8203C614.448 37.5014 610.516 35.847 605.97 35.847C601.425 35.847 597.493 37.4709 594.176 40.7188C590.859 43.9666 589.211 48.4121 589.211 54.0553C589.211 59.6984 590.869 64.2251 594.176 67.6353C597.493 71.0557 601.415 72.7609 605.97 72.7609C610.526 72.7609 614.448 71.0862 617.765 67.7368V67.7267Z" fill="white"/>
<path d="M667.602 82.5958C659.576 82.5958 653.044 80.0077 648.027 74.8314C643.01 69.6551 640.502 62.7941 640.502 54.2381C640.502 45.682 643.041 38.8311 648.129 33.6954C653.218 28.5598 659.791 25.9817 667.848 25.9817C675.905 25.9817 682.447 28.4582 687.474 33.3909C692.491 38.3337 694.999 44.7889 694.999 52.7461C694.999 54.6745 694.866 56.4608 694.6 58.1151H652.245C652.511 62.6926 654.067 66.3261 656.914 69.0157C659.76 71.7054 663.323 73.0452 667.602 73.0452C673.827 73.0452 678.209 70.4875 680.748 65.3822H693.095C691.426 70.4266 688.375 74.5574 683.963 77.7748C679.55 80.9922 674.093 82.5958 667.602 82.5958ZM678.547 39.5618C675.598 36.8721 672.025 35.5324 667.807 35.5324C663.589 35.5324 660.057 36.8721 657.221 39.5618C654.375 42.2514 652.757 45.8443 652.347 50.3609H683.062C682.99 45.8545 681.485 42.2514 678.547 39.5618Z" fill="white"/>
</svg>
