<svg id="Layer_1" data-name="Layer 1" xmlns="http://www.w3.org/2000/svg" viewBox="0 0 726.11 148.39"><defs><style>.cls-1{fill:#ff8235;fill-rule:evenodd;}</style></defs><path class="cls-1" d="M149,7.26a8,8,0,0,1,2.93,10.93l-74.43,129L3.08,18.19a8,8,0,0,1,13.86-8l60.57,105,60.57-105A8,8,0,0,1,149,7.26Z"/><path class="cls-1" d="M434.1,15.19a8,8,0,0,1,8-8h105a8,8,0,0,1,0,16h-45v116a8,8,0,0,1-16,0v-116h-44A8,8,0,0,1,434.1,15.19Z"/><path class="cls-1" d="M176,15.19a8,8,0,0,1,8-8h85a8,8,0,0,1,0,16H184A8,8,0,0,1,176,15.19Zm0,58a8,8,0,0,1,8-8h85a8,8,0,0,1,0,16H184A8,8,0,0,1,176,73.19Zm0,58a8,8,0,0,1,8-8h85a8,8,0,0,1,0,16H184A8,8,0,0,1,176,131.19Z"/><path class="cls-1" d="M651.1,17.19a57,57,0,1,0,57,57A57,57,0,0,0,651.1,17.19Zm-73,57a73,73,0,1,1,73,73A73,73,0,0,1,578.1,74.19Z"/><path class="cls-1" d="M300.1,15.19a8,8,0,0,1,8-8h66a37,37,0,0,1,0,74H348.18l59.7,44.59a8,8,0,1,1-9.57,12.82L300,65.19H374.1a21,21,0,1,0,0-42h-66A8,8,0,0,1,300.1,15.19Z"/></svg>